<svg width="24" height="24" viewBox="0 0 24 24" fill="none" xmlns="http://www.w3.org/2000/svg">
<path fill-rule="evenodd" clip-rule="evenodd" d="M4.78105 2.7988C5.28115 2.28734 5.95942 2 6.66667 2H13.7778C14.0135 2 14.2396 2.09578 14.4063 2.26627L19.7397 7.72081C19.9064 7.8913 20 8.12253 20 8.36364V19.2727C20 19.996 19.719 20.6897 19.219 21.2012C18.7189 21.7127 18.0406 22 17.3333 22H6.66667C5.95942 22 5.28115 21.7127 4.78105 21.2012C4.28095 20.6897 4 19.996 4 19.2727V4.72727C4 4.00396 4.28095 3.31026 4.78105 2.7988ZM6.66667 3.81818C6.43092 3.81818 6.20483 3.91396 6.03813 4.08445C5.87143 4.25494 5.77778 4.48617 5.77778 4.72727V19.2727C5.77778 19.5138 5.87143 19.7451 6.03813 19.9156C6.20483 20.086 6.43092 20.1818 6.66667 20.1818H17.3333C17.5691 20.1818 17.7952 20.086 17.9619 19.9156C18.1286 19.7451 18.2222 19.5138 18.2222 19.2727V8.74019L13.4096 3.81818H6.66667Z" fill="currentColor"/>
<path fill-rule="evenodd" clip-rule="evenodd" d="M13.7778 2C14.2687 2 14.6667 2.40701 14.6667 2.90909V7.45455H19.1111C19.602 7.45455 20 7.86156 20 8.36364C20 8.86571 19.602 9.27273 19.1111 9.27273H13.7778C13.2869 9.27273 12.8889 8.86571 12.8889 8.36364V2.90909C12.8889 2.40701 13.2869 2 13.7778 2Z" fill="currentColor"/>
<path fill-rule="evenodd" clip-rule="evenodd" d="M7.55556 12.9091C7.55556 12.407 7.95352 12 8.44444 12H15.5556C16.0465 12 16.4444 12.407 16.4444 12.9091C16.4444 13.4112 16.0465 13.8182 15.5556 13.8182H8.44444C7.95352 13.8182 7.55556 13.4112 7.55556 12.9091Z" fill="currentColor"/>
<path fill-rule="evenodd" clip-rule="evenodd" d="M7.55556 16.5455C7.55556 16.0434 7.95352 15.6364 8.44444 15.6364H15.5556C16.0465 15.6364 16.4444 16.0434 16.4444 16.5455C16.4444 17.0475 16.0465 17.4545 15.5556 17.4545H8.44444C7.95352 17.4545 7.55556 17.0475 7.55556 16.5455Z" fill="currentColor"/>
<path fill-rule="evenodd" clip-rule="evenodd" d="M7.55556 9.27273C7.55556 8.77065 7.95352 8.36364 8.44444 8.36364H10.2222C10.7131 8.36364 11.1111 8.77065 11.1111 9.27273C11.1111 9.7748 10.7131 10.1818 10.2222 10.1818H8.44444C7.95352 10.1818 7.55556 9.7748 7.55556 9.27273Z" fill="currentColor"/>
</svg>
