<svg width="30" height="20" viewBox="0 0 30 20" fill="none" xmlns="http://www.w3.org/2000/svg">
<path d="M29.4552 10C29.4552 15.2467 25.2019 19.5 19.9552 19.5C14.7085 19.5 10.4552 15.2467 10.4552 10C10.4552 4.75329 14.7085 0.5 19.9552 0.5C25.2019 0.5 29.4552 4.75329 29.4552 10Z" stroke="#E8A92C"/>
<path d="M0.535608 9.68492C0.279145 9.94139 0.279145 10.3572 0.535608 10.6137L4.71493 14.793C4.97139 15.0494 5.3872 15.0494 5.64366 14.793C5.90013 14.5365 5.90013 14.1207 5.64366 13.8642L1.92871 10.1493L5.64366 6.43434C5.90013 6.17788 5.90013 5.76207 5.64366 5.50561C5.3872 5.24914 4.97139 5.24914 4.71493 5.50561L0.535608 9.68492ZM9.9552 9.49258L0.999977 9.49258V10.806L9.9552 10.806V9.49258Z" fill="#E8A92C"/>
</svg>
