<svg width="1363" height="120" viewBox="0 0 1363 120" fill="none" xmlns="http://www.w3.org/2000/svg">
<path d="M2 7L2 57" stroke="#ACD7E6" stroke-width="2" stroke-linecap="round"/>
<path d="M11 7L11 57" stroke="#ACD7E6" stroke-width="2" stroke-linecap="round"/>
<path d="M20 7L20 57" stroke="#ACD7E6" stroke-width="2" stroke-linecap="round"/>
<path d="M29 7L29 57" stroke="#ACD7E6" stroke-width="2" stroke-linecap="round"/>
<path d="M38 7L38 57" stroke="#ACD7E6" stroke-width="2" stroke-linecap="round"/>
<path d="M47 7L47 57" stroke="#ACD7E6" stroke-width="2" stroke-linecap="round"/>
<path d="M56 7L56 57" stroke="#ACD7E6" stroke-width="2" stroke-linecap="round"/>
<path d="M65 7L65 57" stroke="#ACD7E6" stroke-width="2" stroke-linecap="round"/>
<path d="M74 7L74 57" stroke="#ACD7E6" stroke-width="2" stroke-linecap="round"/>
<path d="M83 7L83 57" stroke="#ACD7E6" stroke-width="2" stroke-linecap="round"/>
<path d="M92 7L92 57" stroke="#ACD7E6" stroke-width="2" stroke-linecap="round"/>
<path d="M101 7L101 57" stroke="#ACD7E6" stroke-width="2" stroke-linecap="round"/>
<path d="M110 7L110 57" stroke="#ACD7E6" stroke-width="2" stroke-linecap="round"/>
<path d="M119 7L119 57" stroke="#ACD7E6" stroke-width="2" stroke-linecap="round"/>
<path d="M128 7L128 57" stroke="#ACD7E6" stroke-width="2" stroke-linecap="round"/>
<path d="M137 7L137 57" stroke="#ACD7E6" stroke-width="2" stroke-linecap="round"/>
<path d="M146 7L146 57" stroke="#ACD7E6" stroke-width="2" stroke-linecap="round"/>
<path d="M155 7L155 57" stroke="#ACD7E6" stroke-width="2" stroke-linecap="round"/>
<path d="M164 7L164 57" stroke="#ACD7E6" stroke-width="2" stroke-linecap="round"/>
<path d="M173 7L173 57" stroke="#ACD7E6" stroke-width="2" stroke-linecap="round"/>
<path d="M182 7L182 57" stroke="#ACD7E6" stroke-width="2" stroke-linecap="round"/>
<path d="M191 7L191 57" stroke="#ACD7E6" stroke-width="2" stroke-linecap="round"/>
<path d="M200 7L200 57" stroke="#ACD7E6" stroke-width="2" stroke-linecap="round"/>
<path d="M209 7L209 57" stroke="#ACD7E6" stroke-width="2" stroke-linecap="round"/>
<path d="M218 7L218 57" stroke="#ACD7E6" stroke-width="2" stroke-linecap="round"/>
<path d="M227 7L227 57" stroke="#ACD7E6" stroke-width="2" stroke-linecap="round"/>
<path d="M236 7L236 57" stroke="#ACD7E6" stroke-width="2" stroke-linecap="round"/>
<path d="M245 7L245 57" stroke="#ACD7E6" stroke-width="2" stroke-linecap="round"/>
<path d="M254 7L254 57" stroke="#ACD7E6" stroke-width="2" stroke-linecap="round"/>
<path d="M263 7L263 57" stroke="#ACD7E6" stroke-width="2" stroke-linecap="round"/>
<path d="M272 7L272 57" stroke="#ACD7E6" stroke-width="2" stroke-linecap="round"/>
<path d="M281 7L281 57" stroke="#ACD7E6" stroke-width="2" stroke-linecap="round"/>
<path d="M290 7L290 57" stroke="#ACD7E6" stroke-width="2" stroke-linecap="round"/>
<path d="M299 7L299 57" stroke="#ACD7E6" stroke-width="2" stroke-linecap="round"/>
<path d="M308 7L308 57" stroke="#ACD7E6" stroke-width="2" stroke-linecap="round"/>
<path d="M317 7L317 57" stroke="#ACD7E6" stroke-width="2" stroke-linecap="round"/>
<path d="M326 7L326 57" stroke="#ACD7E6" stroke-width="2" stroke-linecap="round"/>
<path d="M335 7L335 57" stroke="#ACD7E6" stroke-width="2" stroke-linecap="round"/>
<path d="M344 7L344 57" stroke="#ACD7E6" stroke-width="2" stroke-linecap="round"/>
<path d="M353 7L353 57" stroke="#ACD7E6" stroke-width="2" stroke-linecap="round"/>
<path d="M362 7L362 57" stroke="#ACD7E6" stroke-width="2" stroke-linecap="round"/>
<path d="M371 7L371 57" stroke="#ACD7E6" stroke-width="2" stroke-linecap="round"/>
<path d="M380 7L380 57" stroke="#ACD7E6" stroke-width="2" stroke-linecap="round"/>
<path d="M389 7L389 57" stroke="#ACD7E6" stroke-width="2" stroke-linecap="round"/>
<path d="M398 7L398 57" stroke="#ACD7E6" stroke-width="2" stroke-linecap="round"/>
<path d="M407 7L407 57" stroke="#ACD7E6" stroke-width="2" stroke-linecap="round"/>
<path d="M416 7L416 57" stroke="#ACD7E6" stroke-width="2" stroke-linecap="round"/>
<path d="M425 7L425 57" stroke="#ACD7E6" stroke-width="2" stroke-linecap="round"/>
<path d="M434 7L434 57" stroke="#ACD7E6" stroke-width="2" stroke-linecap="round"/>
<path d="M443 7L443 57" stroke="#ACD7E6" stroke-width="2" stroke-linecap="round"/>
<path d="M452 7L452 57" stroke="#ACD7E6" stroke-width="2" stroke-linecap="round"/>
<path d="M461 7L461 57" stroke="#ACD7E6" stroke-width="2" stroke-linecap="round"/>
<path d="M470 7L470 57" stroke="#ACD7E6" stroke-width="2" stroke-linecap="round"/>
<path d="M479 7L479 57" stroke="#ACD7E6" stroke-width="2" stroke-linecap="round"/>
<path d="M488 7L488 57" stroke="#ACD7E6" stroke-width="2" stroke-linecap="round"/>
<path d="M497 7L497 57" stroke="#ACD7E6" stroke-width="2" stroke-linecap="round"/>
<path d="M506 7L506 57" stroke="#ACD7E6" stroke-width="2" stroke-linecap="round"/>
<path d="M515 7L515 57" stroke="#ACD7E6" stroke-width="2" stroke-linecap="round"/>
<path d="M524 7L524 57" stroke="#ACD7E6" stroke-width="2" stroke-linecap="round"/>
<path d="M533 7L533 57" stroke="#ACD7E6" stroke-width="2" stroke-linecap="round"/>
<path d="M542 7L542 57" stroke="#ACD7E6" stroke-width="2" stroke-linecap="round"/>
<path d="M551 7L551 57" stroke="#ACD7E6" stroke-width="2" stroke-linecap="round"/>
<path d="M560 7L560 57" stroke="#ACD7E6" stroke-width="2" stroke-linecap="round"/>
<path d="M569 7L569 57" stroke="#ACD7E6" stroke-width="2" stroke-linecap="round"/>
<path d="M578 7L578 57" stroke="#ACD7E6" stroke-width="2" stroke-linecap="round"/>
<path d="M587 7L587 57" stroke="#ACD7E6" stroke-width="2" stroke-linecap="round"/>
<path d="M596 7L596 57" stroke="#ACD7E6" stroke-width="2" stroke-linecap="round"/>
<path d="M605 7L605 57" stroke="#ACD7E6" stroke-width="2" stroke-linecap="round"/>
<path d="M614 7L614 57" stroke="#ACD7E6" stroke-width="2" stroke-linecap="round"/>
<path d="M623 7L623 57" stroke="#ACD7E6" stroke-width="2" stroke-linecap="round"/>
<path d="M632 7L632 57" stroke="#ACD7E6" stroke-width="2" stroke-linecap="round"/>
<path d="M641 7L641 57" stroke="#ACD7E6" stroke-width="2" stroke-linecap="round"/>
<path d="M650 7L650 57" stroke="#ACD7E6" stroke-width="2" stroke-linecap="round"/>
<path d="M659 7L659 57" stroke="#ACD7E6" stroke-width="2" stroke-linecap="round"/>
<path d="M668 7L668 57" stroke="#ACD7E6" stroke-width="2" stroke-linecap="round"/>
<path d="M677 7L677 57" stroke="#ACD7E6" stroke-width="2" stroke-linecap="round"/>
<path d="M686 7L686 57" stroke="#ACD7E6" stroke-width="2" stroke-linecap="round"/>
<path d="M695 7L695 57" stroke="#ACD7E6" stroke-width="2" stroke-linecap="round"/>
<path d="M704 7L704 57" stroke="#ACD7E6" stroke-width="2" stroke-linecap="round"/>
<path d="M713 7L713 57" stroke="#ACD7E6" stroke-width="2" stroke-linecap="round"/>
<path d="M722 7L722 57" stroke="#ACD7E6" stroke-width="2" stroke-linecap="round"/>
<path d="M731 7L731 57" stroke="#ACD7E6" stroke-width="2" stroke-linecap="round"/>
<path d="M740 7L740 57" stroke="#ACD7E6" stroke-width="2" stroke-linecap="round"/>
<path d="M749 7L749 57" stroke="#ACD7E6" stroke-width="2" stroke-linecap="round"/>
<path d="M758 7L758 57" stroke="#ACD7E6" stroke-width="2" stroke-linecap="round"/>
<path d="M767 7L767 57" stroke="#ACD7E6" stroke-width="2" stroke-linecap="round"/>
<path d="M776 7L776 57" stroke="#ACD7E6" stroke-width="2" stroke-linecap="round"/>
<path d="M785 7L785 57" stroke="#ACD7E6" stroke-width="2" stroke-linecap="round"/>
<path d="M794 7L794 57" stroke="#ACD7E6" stroke-width="2" stroke-linecap="round"/>
<path d="M803 7L803 57" stroke="#ACD7E6" stroke-width="2" stroke-linecap="round"/>
<path d="M812 7L812 57" stroke="#ACD7E6" stroke-width="2" stroke-linecap="round"/>
<path d="M821 7L821 57" stroke="#ACD7E6" stroke-width="2" stroke-linecap="round"/>
<path d="M830 7L830 57" stroke="#ACD7E6" stroke-width="2" stroke-linecap="round"/>
<path d="M839 7L839 57" stroke="#ACD7E6" stroke-width="2" stroke-linecap="round"/>
<path d="M848 7L848 57" stroke="#ACD7E6" stroke-width="2" stroke-linecap="round"/>
<path d="M857 7L857 57" stroke="#ACD7E6" stroke-width="2" stroke-linecap="round"/>
<path d="M866 7L866 57" stroke="#ACD7E6" stroke-width="2" stroke-linecap="round"/>
<path d="M875 7L875 57" stroke="#ACD7E6" stroke-width="2" stroke-linecap="round"/>
<path d="M884 7L884 57" stroke="#ACD7E6" stroke-width="2" stroke-linecap="round"/>
<path d="M893 7L893 57" stroke="#ACD7E6" stroke-width="2" stroke-linecap="round"/>
<path d="M902 7L902 57" stroke="#ACD7E6" stroke-width="2" stroke-linecap="round"/>
<path d="M911 7L911 57" stroke="#ACD7E6" stroke-width="2" stroke-linecap="round"/>
<path d="M920 7L920 57" stroke="#ACD7E6" stroke-width="2" stroke-linecap="round"/>
<path d="M929 7L929 57" stroke="#ACD7E6" stroke-width="2" stroke-linecap="round"/>
<path d="M938 7L938 57" stroke="#ACD7E6" stroke-width="2" stroke-linecap="round"/>
<path d="M947 7L947 57" stroke="#ACD7E6" stroke-width="2" stroke-linecap="round"/>
<path d="M956 7L956 57" stroke="#ACD7E6" stroke-width="2" stroke-linecap="round"/>
<path d="M965 7L965 57" stroke="#ACD7E6" stroke-width="2" stroke-linecap="round"/>
<path d="M974 7L974 57" stroke="#ACD7E6" stroke-width="2" stroke-linecap="round"/>
<path d="M983 7L983 57" stroke="#ACD7E6" stroke-width="2" stroke-linecap="round"/>
<path d="M992 7L992 57" stroke="#ACD7E6" stroke-width="2" stroke-linecap="round"/>
<path d="M1001 7L1001 57" stroke="#ACD7E6" stroke-width="2" stroke-linecap="round"/>
<path d="M1010 7L1010 57" stroke="#ACD7E6" stroke-width="2" stroke-linecap="round"/>
<path d="M1019 7L1019 57" stroke="#ACD7E6" stroke-width="2" stroke-linecap="round"/>
<path d="M1028 7L1028 57" stroke="#ACD7E6" stroke-width="2" stroke-linecap="round"/>
<path d="M1037 7L1037 57" stroke="#ACD7E6" stroke-width="2" stroke-linecap="round"/>
<path d="M1046 7L1046 57" stroke="#ACD7E6" stroke-width="2" stroke-linecap="round"/>
<path d="M1055 7L1055 57" stroke="#ACD7E6" stroke-width="2" stroke-linecap="round"/>
<path d="M1064 7L1064 57" stroke="#ACD7E6" stroke-width="2" stroke-linecap="round"/>
<path d="M1073 7L1073 57" stroke="#ACD7E6" stroke-width="2" stroke-linecap="round"/>
<path d="M1082 7L1082 57" stroke="#ACD7E6" stroke-width="2" stroke-linecap="round"/>
<path d="M1091 7L1091 57" stroke="#ACD7E6" stroke-width="2" stroke-linecap="round"/>
<path d="M1100 7L1100 57" stroke="#ACD7E6" stroke-width="2" stroke-linecap="round"/>
<path d="M1109 7L1109 57" stroke="#ACD7E6" stroke-width="2" stroke-linecap="round"/>
<path d="M1118 7L1118 57" stroke="#ACD7E6" stroke-width="2" stroke-linecap="round"/>
<path d="M1127 7L1127 57" stroke="#ACD7E6" stroke-width="2" stroke-linecap="round"/>
<path d="M1136 7L1136 57" stroke="#ACD7E6" stroke-width="2" stroke-linecap="round"/>
<path d="M1145 7L1145 57" stroke="#ACD7E6" stroke-width="2" stroke-linecap="round"/>
<path d="M1154 7L1154 57" stroke="#ACD7E6" stroke-width="2" stroke-linecap="round"/>
<path d="M1163 7L1163 57" stroke="#ACD7E6" stroke-width="2" stroke-linecap="round"/>
<path d="M1172 7L1172 57" stroke="#ACD7E6" stroke-width="2" stroke-linecap="round"/>
<path d="M1181 7L1181 57" stroke="#ACD7E6" stroke-width="2" stroke-linecap="round"/>
<path d="M1190 7L1190 57" stroke="#ACD7E6" stroke-width="2" stroke-linecap="round"/>
<path d="M1199 7L1199 57" stroke="#ACD7E6" stroke-width="2" stroke-linecap="round"/>
<path d="M1208 7L1208 57" stroke="#ACD7E6" stroke-width="2" stroke-linecap="round"/>
<path d="M1217 7L1217 57" stroke="#ACD7E6" stroke-width="2" stroke-linecap="round"/>
<path d="M1226 7L1226 57" stroke="#ACD7E6" stroke-width="2" stroke-linecap="round"/>
<path d="M1235 7L1235 57" stroke="#ACD7E6" stroke-width="2" stroke-linecap="round"/>
<path d="M1244 7L1244 57" stroke="#ACD7E6" stroke-width="2" stroke-linecap="round"/>
<path d="M1253 7L1253 57" stroke="#ACD7E6" stroke-width="2" stroke-linecap="round"/>
<path d="M1262 7L1262 57" stroke="#ACD7E6" stroke-width="2" stroke-linecap="round"/>
<path d="M1271 7L1271 57" stroke="#ACD7E6" stroke-width="2" stroke-linecap="round"/>
<path d="M1280 7L1280 57" stroke="#ACD7E6" stroke-width="2" stroke-linecap="round"/>
<path d="M1289 7L1289 57" stroke="#ACD7E6" stroke-width="2" stroke-linecap="round"/>
<path d="M1298 7L1298 57" stroke="#ACD7E6" stroke-width="2" stroke-linecap="round"/>
<path d="M1307 7L1307 57" stroke="#ACD7E6" stroke-width="2" stroke-linecap="round"/>
<path d="M1316 7L1316 57" stroke="#ACD7E6" stroke-width="2" stroke-linecap="round"/>
<path d="M1325 7L1325 57" stroke="#ACD7E6" stroke-width="2" stroke-linecap="round"/>
<path d="M1334 7L1334 57" stroke="#ACD7E6" stroke-width="2" stroke-linecap="round"/>
<path d="M1343 7L1343 57" stroke="#ACD7E6" stroke-width="2" stroke-linecap="round"/>
<path d="M1352 7L1352 57" stroke="#ACD7E6" stroke-width="2" stroke-linecap="round"/>
<path d="M1361 7L1361 57" stroke="#ACD7E6" stroke-width="2" stroke-linecap="round"/>
<path d="M2 113L2 62" stroke="#ACD7E6" stroke-width="2" stroke-linecap="round"/>
<path d="M11 113L11 62" stroke="#ACD7E6" stroke-width="2" stroke-linecap="round"/>
<path d="M20 113L20 62" stroke="#ACD7E6" stroke-width="2" stroke-linecap="round"/>
<path d="M29 113L29 62" stroke="#ACD7E6" stroke-width="2" stroke-linecap="round"/>
<path d="M38 113L38 62" stroke="#ACD7E6" stroke-width="2" stroke-linecap="round"/>
<path d="M47 113L47 62" stroke="#ACD7E6" stroke-width="2" stroke-linecap="round"/>
<path d="M56 113L56 62" stroke="#ACD7E6" stroke-width="2" stroke-linecap="round"/>
<path d="M65 113L65 62" stroke="#ACD7E6" stroke-width="2" stroke-linecap="round"/>
<path d="M74 113L74 62" stroke="#ACD7E6" stroke-width="2" stroke-linecap="round"/>
<path d="M83 113L83 62" stroke="#ACD7E6" stroke-width="2" stroke-linecap="round"/>
<path d="M92 113L92 62" stroke="#ACD7E6" stroke-width="2" stroke-linecap="round"/>
<path d="M101 113L101 62" stroke="#ACD7E6" stroke-width="2" stroke-linecap="round"/>
<path d="M110 113L110 62" stroke="#ACD7E6" stroke-width="2" stroke-linecap="round"/>
<path d="M119 113L119 62" stroke="#ACD7E6" stroke-width="2" stroke-linecap="round"/>
<path d="M128 113L128 62" stroke="#ACD7E6" stroke-width="2" stroke-linecap="round"/>
<path d="M137 113L137 62" stroke="#ACD7E6" stroke-width="2" stroke-linecap="round"/>
<path d="M146 113L146 62" stroke="#ACD7E6" stroke-width="2" stroke-linecap="round"/>
<path d="M155 113L155 62" stroke="#ACD7E6" stroke-width="2" stroke-linecap="round"/>
<path d="M164 113L164 62" stroke="#ACD7E6" stroke-width="2" stroke-linecap="round"/>
<path d="M173 113L173 62" stroke="#ACD7E6" stroke-width="2" stroke-linecap="round"/>
<path d="M182 113L182 62" stroke="#ACD7E6" stroke-width="2" stroke-linecap="round"/>
<path d="M191 113L191 62" stroke="#ACD7E6" stroke-width="2" stroke-linecap="round"/>
<path d="M200 113L200 62" stroke="#ACD7E6" stroke-width="2" stroke-linecap="round"/>
<path d="M209 113L209 62" stroke="#ACD7E6" stroke-width="2" stroke-linecap="round"/>
<path d="M218 113L218 62" stroke="#ACD7E6" stroke-width="2" stroke-linecap="round"/>
<path d="M227 113L227 62" stroke="#ACD7E6" stroke-width="2" stroke-linecap="round"/>
<path d="M236 113L236 62" stroke="#ACD7E6" stroke-width="2" stroke-linecap="round"/>
<path d="M245 113L245 62" stroke="#ACD7E6" stroke-width="2" stroke-linecap="round"/>
<path d="M254 113L254 62" stroke="#ACD7E6" stroke-width="2" stroke-linecap="round"/>
<path d="M263 113L263 62" stroke="#ACD7E6" stroke-width="2" stroke-linecap="round"/>
<path d="M272 113L272 62" stroke="#ACD7E6" stroke-width="2" stroke-linecap="round"/>
<path d="M281 113L281 62" stroke="#ACD7E6" stroke-width="2" stroke-linecap="round"/>
<path d="M290 113L290 62" stroke="#ACD7E6" stroke-width="2" stroke-linecap="round"/>
<path d="M299 113L299 62" stroke="#ACD7E6" stroke-width="2" stroke-linecap="round"/>
<path d="M308 113L308 62" stroke="#ACD7E6" stroke-width="2" stroke-linecap="round"/>
<path d="M317 113L317 62" stroke="#ACD7E6" stroke-width="2" stroke-linecap="round"/>
<path d="M326 113L326 62" stroke="#ACD7E6" stroke-width="2" stroke-linecap="round"/>
<path d="M335 113L335 62" stroke="#ACD7E6" stroke-width="2" stroke-linecap="round"/>
<path d="M344 113L344 62" stroke="#ACD7E6" stroke-width="2" stroke-linecap="round"/>
<path d="M353 113L353 62" stroke="#ACD7E6" stroke-width="2" stroke-linecap="round"/>
<path d="M362 113L362 62" stroke="#ACD7E6" stroke-width="2" stroke-linecap="round"/>
<path d="M371 113L371 62" stroke="#ACD7E6" stroke-width="2" stroke-linecap="round"/>
<path d="M380 113L380 62" stroke="#ACD7E6" stroke-width="2" stroke-linecap="round"/>
<path d="M389 113L389 62" stroke="#ACD7E6" stroke-width="2" stroke-linecap="round"/>
<path d="M398 113L398 62" stroke="#ACD7E6" stroke-width="2" stroke-linecap="round"/>
<path d="M407 113L407 62" stroke="#ACD7E6" stroke-width="2" stroke-linecap="round"/>
<path d="M416 113L416 62" stroke="#ACD7E6" stroke-width="2" stroke-linecap="round"/>
<path d="M425 113L425 62" stroke="#ACD7E6" stroke-width="2" stroke-linecap="round"/>
<path d="M434 113L434 62" stroke="#ACD7E6" stroke-width="2" stroke-linecap="round"/>
<path d="M443 113L443 62" stroke="#ACD7E6" stroke-width="2" stroke-linecap="round"/>
<path d="M452 113L452 62" stroke="#ACD7E6" stroke-width="2" stroke-linecap="round"/>
<path d="M461 113L461 62" stroke="#ACD7E6" stroke-width="2" stroke-linecap="round"/>
<path d="M470 113L470 62" stroke="#ACD7E6" stroke-width="2" stroke-linecap="round"/>
<path d="M479 113L479 62" stroke="#ACD7E6" stroke-width="2" stroke-linecap="round"/>
<path d="M488 113L488 62" stroke="#ACD7E6" stroke-width="2" stroke-linecap="round"/>
<path d="M497 113L497 62" stroke="#ACD7E6" stroke-width="2" stroke-linecap="round"/>
<path d="M506 113L506 62" stroke="#ACD7E6" stroke-width="2" stroke-linecap="round"/>
<path d="M515 113L515 62" stroke="#ACD7E6" stroke-width="2" stroke-linecap="round"/>
<path d="M524 113L524 62" stroke="#ACD7E6" stroke-width="2" stroke-linecap="round"/>
<path d="M533 113L533 62" stroke="#ACD7E6" stroke-width="2" stroke-linecap="round"/>
<path d="M542 113L542 62" stroke="#ACD7E6" stroke-width="2" stroke-linecap="round"/>
<path d="M551 113L551 62" stroke="#ACD7E6" stroke-width="2" stroke-linecap="round"/>
<path d="M560 113L560 62" stroke="#ACD7E6" stroke-width="2" stroke-linecap="round"/>
<path d="M569 113L569 62" stroke="#ACD7E6" stroke-width="2" stroke-linecap="round"/>
<path d="M578 113L578 62" stroke="#ACD7E6" stroke-width="2" stroke-linecap="round"/>
<path d="M587 113L587 62" stroke="#ACD7E6" stroke-width="2" stroke-linecap="round"/>
<path d="M596 113L596 62" stroke="#ACD7E6" stroke-width="2" stroke-linecap="round"/>
<path d="M605 113L605 62" stroke="#ACD7E6" stroke-width="2" stroke-linecap="round"/>
<path d="M614 113L614 62" stroke="#ACD7E6" stroke-width="2" stroke-linecap="round"/>
<path d="M623 113L623 62" stroke="#ACD7E6" stroke-width="2" stroke-linecap="round"/>
<path d="M632 113L632 62" stroke="#ACD7E6" stroke-width="2" stroke-linecap="round"/>
<path d="M641 113L641 62" stroke="#ACD7E6" stroke-width="2" stroke-linecap="round"/>
<path d="M650 113L650 62" stroke="#ACD7E6" stroke-width="2" stroke-linecap="round"/>
<path d="M659 113L659 62" stroke="#ACD7E6" stroke-width="2" stroke-linecap="round"/>
<path d="M668 113L668 62" stroke="#ACD7E6" stroke-width="2" stroke-linecap="round"/>
<path d="M677 113L677 62" stroke="#ACD7E6" stroke-width="2" stroke-linecap="round"/>
<path d="M686 113L686 62" stroke="#ACD7E6" stroke-width="2" stroke-linecap="round"/>
<path d="M695 113L695 62" stroke="#ACD7E6" stroke-width="2" stroke-linecap="round"/>
<path d="M704 113L704 62" stroke="#ACD7E6" stroke-width="2" stroke-linecap="round"/>
<path d="M713 113L713 62" stroke="#ACD7E6" stroke-width="2" stroke-linecap="round"/>
<path d="M722 113L722 62" stroke="#ACD7E6" stroke-width="2" stroke-linecap="round"/>
<path d="M731 113L731 62" stroke="#ACD7E6" stroke-width="2" stroke-linecap="round"/>
<path d="M740 113L740 62" stroke="#ACD7E6" stroke-width="2" stroke-linecap="round"/>
<path d="M749 113L749 62" stroke="#ACD7E6" stroke-width="2" stroke-linecap="round"/>
<path d="M758 113L758 62" stroke="#ACD7E6" stroke-width="2" stroke-linecap="round"/>
<path d="M767 113L767 62" stroke="#ACD7E6" stroke-width="2" stroke-linecap="round"/>
<path d="M776 113L776 62" stroke="#ACD7E6" stroke-width="2" stroke-linecap="round"/>
<path d="M785 113L785 62" stroke="#ACD7E6" stroke-width="2" stroke-linecap="round"/>
<path d="M794 113L794 62" stroke="#ACD7E6" stroke-width="2" stroke-linecap="round"/>
<path d="M803 113L803 62" stroke="#ACD7E6" stroke-width="2" stroke-linecap="round"/>
<path d="M812 113L812 62" stroke="#ACD7E6" stroke-width="2" stroke-linecap="round"/>
<path d="M821 113L821 62" stroke="#ACD7E6" stroke-width="2" stroke-linecap="round"/>
<path d="M830 113L830 62" stroke="#ACD7E6" stroke-width="2" stroke-linecap="round"/>
<path d="M839 113L839 62" stroke="#ACD7E6" stroke-width="2" stroke-linecap="round"/>
<path d="M848 113L848 62" stroke="#ACD7E6" stroke-width="2" stroke-linecap="round"/>
<path d="M857 113L857 62" stroke="#ACD7E6" stroke-width="2" stroke-linecap="round"/>
<path d="M866 113L866 62" stroke="#ACD7E6" stroke-width="2" stroke-linecap="round"/>
<path d="M875 113L875 62" stroke="#ACD7E6" stroke-width="2" stroke-linecap="round"/>
<path d="M884 113L884 62" stroke="#ACD7E6" stroke-width="2" stroke-linecap="round"/>
<path d="M893 113L893 62" stroke="#ACD7E6" stroke-width="2" stroke-linecap="round"/>
<path d="M902 113L902 62" stroke="#ACD7E6" stroke-width="2" stroke-linecap="round"/>
<path d="M911 113L911 62" stroke="#ACD7E6" stroke-width="2" stroke-linecap="round"/>
<path d="M920 113L920 62" stroke="#ACD7E6" stroke-width="2" stroke-linecap="round"/>
<path d="M929 113L929 62" stroke="#ACD7E6" stroke-width="2" stroke-linecap="round"/>
<path d="M938 113L938 62" stroke="#ACD7E6" stroke-width="2" stroke-linecap="round"/>
<path d="M947 113L947 62" stroke="#ACD7E6" stroke-width="2" stroke-linecap="round"/>
<path d="M956 113L956 62" stroke="#ACD7E6" stroke-width="2" stroke-linecap="round"/>
<path d="M965 113L965 62" stroke="#ACD7E6" stroke-width="2" stroke-linecap="round"/>
<path d="M974 113L974 62" stroke="#ACD7E6" stroke-width="2" stroke-linecap="round"/>
<path d="M983 113L983 62" stroke="#ACD7E6" stroke-width="2" stroke-linecap="round"/>
<path d="M992 113L992 62" stroke="#ACD7E6" stroke-width="2" stroke-linecap="round"/>
<path d="M1001 113L1001 62" stroke="#ACD7E6" stroke-width="2" stroke-linecap="round"/>
<path d="M1010 113L1010 62" stroke="#ACD7E6" stroke-width="2" stroke-linecap="round"/>
<path d="M1019 113L1019 62" stroke="#ACD7E6" stroke-width="2" stroke-linecap="round"/>
<path d="M1028 113L1028 62" stroke="#ACD7E6" stroke-width="2" stroke-linecap="round"/>
<path d="M1037 113L1037 62" stroke="#ACD7E6" stroke-width="2" stroke-linecap="round"/>
<path d="M1046 113L1046 62" stroke="#ACD7E6" stroke-width="2" stroke-linecap="round"/>
<path d="M1055 113L1055 62" stroke="#ACD7E6" stroke-width="2" stroke-linecap="round"/>
<path d="M1064 113L1064 62" stroke="#ACD7E6" stroke-width="2" stroke-linecap="round"/>
<path d="M1073 113L1073 62" stroke="#ACD7E6" stroke-width="2" stroke-linecap="round"/>
<path d="M1082 113L1082 62" stroke="#ACD7E6" stroke-width="2" stroke-linecap="round"/>
<path d="M1091 113L1091 62" stroke="#ACD7E6" stroke-width="2" stroke-linecap="round"/>
<path d="M1100 113L1100 62" stroke="#ACD7E6" stroke-width="2" stroke-linecap="round"/>
<path d="M1109 113L1109 62" stroke="#ACD7E6" stroke-width="2" stroke-linecap="round"/>
<path d="M1118 113L1118 62" stroke="#ACD7E6" stroke-width="2" stroke-linecap="round"/>
<path d="M1127 113L1127 62" stroke="#ACD7E6" stroke-width="2" stroke-linecap="round"/>
<path d="M1136 113L1136 62" stroke="#ACD7E6" stroke-width="2" stroke-linecap="round"/>
<path d="M1145 113L1145 62" stroke="#ACD7E6" stroke-width="2" stroke-linecap="round"/>
<path d="M1154 113L1154 62" stroke="#ACD7E6" stroke-width="2" stroke-linecap="round"/>
<path d="M1163 113L1163 62" stroke="#ACD7E6" stroke-width="2" stroke-linecap="round"/>
<path d="M1172 113L1172 62" stroke="#ACD7E6" stroke-width="2" stroke-linecap="round"/>
<path d="M1181 113L1181 62" stroke="#ACD7E6" stroke-width="2" stroke-linecap="round"/>
<path d="M1190 113L1190 62" stroke="#ACD7E6" stroke-width="2" stroke-linecap="round"/>
<path d="M1199 113L1199 62" stroke="#ACD7E6" stroke-width="2" stroke-linecap="round"/>
<path d="M1208 113L1208 62" stroke="#ACD7E6" stroke-width="2" stroke-linecap="round"/>
<path d="M1217 113L1217 62" stroke="#ACD7E6" stroke-width="2" stroke-linecap="round"/>
<path d="M1226 113L1226 62" stroke="#ACD7E6" stroke-width="2" stroke-linecap="round"/>
<path d="M1235 113L1235 62" stroke="#ACD7E6" stroke-width="2" stroke-linecap="round"/>
<path d="M1244 113L1244 62" stroke="#ACD7E6" stroke-width="2" stroke-linecap="round"/>
<path d="M1253 113L1253 62" stroke="#ACD7E6" stroke-width="2" stroke-linecap="round"/>
<path d="M1262 113L1262 62" stroke="#ACD7E6" stroke-width="2" stroke-linecap="round"/>
<path d="M1271 113L1271 62" stroke="#ACD7E6" stroke-width="2" stroke-linecap="round"/>
<path d="M1280 113L1280 62" stroke="#ACD7E6" stroke-width="2" stroke-linecap="round"/>
<path d="M1289 113L1289 62" stroke="#ACD7E6" stroke-width="2" stroke-linecap="round"/>
<path d="M1298 113L1298 62" stroke="#ACD7E6" stroke-width="2" stroke-linecap="round"/>
<path d="M1307 113L1307 62" stroke="#ACD7E6" stroke-width="2" stroke-linecap="round"/>
<path d="M1316 113L1316 62" stroke="#ACD7E6" stroke-width="2" stroke-linecap="round"/>
<path d="M1325 113L1325 62" stroke="#ACD7E6" stroke-width="2" stroke-linecap="round"/>
<path d="M1334 113L1334 62" stroke="#ACD7E6" stroke-width="2" stroke-linecap="round"/>
<path d="M1343 113L1343 62" stroke="#ACD7E6" stroke-width="2" stroke-linecap="round"/>
<path d="M1352 113L1352 62" stroke="#ACD7E6" stroke-width="2" stroke-linecap="round"/>
<path d="M1361 113L1361 62" stroke="#ACD7E6" stroke-width="2" stroke-linecap="round"/>
<circle cx="2" cy="118" r="2" fill="#2AB2E0"/>
<circle cx="11" cy="118" r="2" fill="#2AB2E0"/>
<circle cx="20" cy="118" r="2" fill="#2AB2E0"/>
<circle cx="29" cy="118" r="2" fill="#2AB2E0"/>
<circle cx="38" cy="118" r="2" fill="#2AB2E0"/>
<circle cx="47" cy="118" r="2" fill="#2AB2E0"/>
<circle cx="56" cy="118" r="2" fill="#2AB2E0"/>
<circle cx="65" cy="118" r="2" fill="#2AB2E0"/>
<circle cx="74" cy="118" r="2" fill="#2AB2E0"/>
<circle cx="83" cy="118" r="2" fill="#2AB2E0"/>
<circle cx="92" cy="118" r="2" fill="#2AB2E0"/>
<circle cx="101" cy="118" r="2" fill="#2AB2E0"/>
<circle cx="110" cy="118" r="2" fill="#2AB2E0"/>
<circle cx="119" cy="118" r="2" fill="#2AB2E0"/>
<circle cx="128" cy="118" r="2" fill="#2AB2E0"/>
<circle cx="137" cy="118" r="2" fill="#2AB2E0"/>
<circle cx="146" cy="118" r="2" fill="#2AB2E0"/>
<circle cx="155" cy="118" r="2" fill="#2AB2E0"/>
<circle cx="164" cy="118" r="2" fill="#2AB2E0"/>
<circle cx="173" cy="118" r="2" fill="#2AB2E0"/>
<circle cx="182" cy="118" r="2" fill="#2AB2E0"/>
<circle cx="191" cy="118" r="2" fill="#2AB2E0"/>
<circle cx="200" cy="118" r="2" fill="#2AB2E0"/>
<circle cx="209" cy="118" r="2" fill="#2AB2E0"/>
<circle cx="218" cy="118" r="2" fill="#2AB2E0"/>
<circle cx="227" cy="118" r="2" fill="#2AB2E0"/>
<circle cx="236" cy="118" r="2" fill="#2AB2E0"/>
<circle cx="245" cy="118" r="2" fill="#2AB2E0"/>
<circle cx="254" cy="118" r="2" fill="#2AB2E0"/>
<circle cx="263" cy="118" r="2" fill="#2AB2E0"/>
<circle cx="272" cy="118" r="2" fill="#2AB2E0"/>
<circle cx="281" cy="118" r="2" fill="#2AB2E0"/>
<circle cx="290" cy="118" r="2" fill="#2AB2E0"/>
<circle cx="299" cy="118" r="2" fill="#2AB2E0"/>
<circle cx="308" cy="118" r="2" fill="#2AB2E0"/>
<circle cx="317" cy="118" r="2" fill="#2AB2E0"/>
<circle cx="326" cy="118" r="2" fill="#2AB2E0"/>
<circle cx="335" cy="118" r="2" fill="#2AB2E0"/>
<circle cx="344" cy="118" r="2" fill="#2AB2E0"/>
<circle cx="353" cy="118" r="2" fill="#2AB2E0"/>
<circle cx="362" cy="118" r="2" fill="#2AB2E0"/>
<circle cx="371" cy="118" r="2" fill="#2AB2E0"/>
<circle cx="380" cy="118" r="2" fill="#2AB2E0"/>
<circle cx="389" cy="118" r="2" fill="#2AB2E0"/>
<circle cx="398" cy="118" r="2" fill="#2AB2E0"/>
<circle cx="407" cy="118" r="2" fill="#2AB2E0"/>
<circle cx="416" cy="118" r="2" fill="#2AB2E0"/>
<circle cx="425" cy="118" r="2" fill="#2AB2E0"/>
<circle cx="434" cy="118" r="2" fill="#2AB2E0"/>
<circle cx="443" cy="118" r="2" fill="#2AB2E0"/>
<circle cx="452" cy="118" r="2" fill="#2AB2E0"/>
<circle cx="461" cy="118" r="2" fill="#2AB2E0"/>
<circle cx="470" cy="118" r="2" fill="#2AB2E0"/>
<circle cx="479" cy="118" r="2" fill="#2AB2E0"/>
<circle cx="488" cy="118" r="2" fill="#2AB2E0"/>
<circle cx="497" cy="118" r="2" fill="#2AB2E0"/>
<circle cx="506" cy="118" r="2" fill="#2AB2E0"/>
<circle cx="515" cy="118" r="2" fill="#2AB2E0"/>
<circle cx="524" cy="118" r="2" fill="#2AB2E0"/>
<circle cx="533" cy="118" r="2" fill="#2AB2E0"/>
<circle cx="542" cy="118" r="2" fill="#2AB2E0"/>
<circle cx="551" cy="118" r="2" fill="#2AB2E0"/>
<circle cx="560" cy="118" r="2" fill="#2AB2E0"/>
<circle cx="569" cy="118" r="2" fill="#2AB2E0"/>
<circle cx="578" cy="118" r="2" fill="#2AB2E0"/>
<circle cx="587" cy="118" r="2" fill="#2AB2E0"/>
<circle cx="596" cy="118" r="2" fill="#2AB2E0"/>
<circle cx="605" cy="118" r="2" fill="#2AB2E0"/>
<circle cx="614" cy="118" r="2" fill="#2AB2E0"/>
<circle cx="623" cy="118" r="2" fill="#2AB2E0"/>
<circle cx="632" cy="118" r="2" fill="#2AB2E0"/>
<circle cx="641" cy="118" r="2" fill="#2AB2E0"/>
<circle cx="650" cy="118" r="2" fill="#2AB2E0"/>
<circle cx="659" cy="118" r="2" fill="#2AB2E0"/>
<circle cx="668" cy="118" r="2" fill="#2AB2E0"/>
<circle cx="677" cy="118" r="2" fill="#2AB2E0"/>
<circle cx="686" cy="118" r="2" fill="#2AB2E0"/>
<circle cx="695" cy="118" r="2" fill="#2AB2E0"/>
<circle cx="704" cy="118" r="2" fill="#2AB2E0"/>
<circle cx="713" cy="118" r="2" fill="#2AB2E0"/>
<circle cx="722" cy="118" r="2" fill="#2AB2E0"/>
<circle cx="731" cy="118" r="2" fill="#2AB2E0"/>
<circle cx="740" cy="118" r="2" fill="#2AB2E0"/>
<circle cx="749" cy="118" r="2" fill="#2AB2E0"/>
<circle cx="758" cy="118" r="2" fill="#2AB2E0"/>
<circle cx="767" cy="118" r="2" fill="#2AB2E0"/>
<circle cx="776" cy="118" r="2" fill="#2AB2E0"/>
<circle cx="785" cy="118" r="2" fill="#2AB2E0"/>
<circle cx="794" cy="118" r="2" fill="#2AB2E0"/>
<circle cx="803" cy="118" r="2" fill="#2AB2E0"/>
<circle cx="812" cy="118" r="2" fill="#2AB2E0"/>
<circle cx="821" cy="118" r="2" fill="#2AB2E0"/>
<circle cx="830" cy="118" r="2" fill="#2AB2E0"/>
<circle cx="839" cy="118" r="2" fill="#2AB2E0"/>
<circle cx="848" cy="118" r="2" fill="#2AB2E0"/>
<circle cx="857" cy="118" r="2" fill="#2AB2E0"/>
<circle cx="866" cy="118" r="2" fill="#2AB2E0"/>
<circle cx="875" cy="118" r="2" fill="#2AB2E0"/>
<circle cx="884" cy="118" r="2" fill="#2AB2E0"/>
<circle cx="893" cy="118" r="2" fill="#2AB2E0"/>
<circle cx="902" cy="118" r="2" fill="#2AB2E0"/>
<circle cx="911" cy="118" r="2" fill="#2AB2E0"/>
<circle cx="920" cy="118" r="2" fill="#2AB2E0"/>
<circle cx="929" cy="118" r="2" fill="#2AB2E0"/>
<circle cx="938" cy="118" r="2" fill="#2AB2E0"/>
<circle cx="947" cy="118" r="2" fill="#2AB2E0"/>
<circle cx="956" cy="118" r="2" fill="#2AB2E0"/>
<circle cx="965" cy="118" r="2" fill="#2AB2E0"/>
<circle cx="974" cy="118" r="2" fill="#2AB2E0"/>
<circle cx="983" cy="118" r="2" fill="#2AB2E0"/>
<circle cx="992" cy="118" r="2" fill="#2AB2E0"/>
<circle cx="1001" cy="118" r="2" fill="#2AB2E0"/>
<circle cx="1010" cy="118" r="2" fill="#2AB2E0"/>
<circle cx="1019" cy="118" r="2" fill="#2AB2E0"/>
<circle cx="1028" cy="118" r="2" fill="#2AB2E0"/>
<circle cx="1037" cy="118" r="2" fill="#2AB2E0"/>
<circle cx="1046" cy="118" r="2" fill="#2AB2E0"/>
<circle cx="1055" cy="118" r="2" fill="#2AB2E0"/>
<circle cx="1064" cy="118" r="2" fill="#2AB2E0"/>
<circle cx="1073" cy="118" r="2" fill="#2AB2E0"/>
<circle cx="1082" cy="118" r="2" fill="#2AB2E0"/>
<circle cx="1091" cy="118" r="2" fill="#2AB2E0"/>
<circle cx="1100" cy="118" r="2" fill="#2AB2E0"/>
<circle cx="1109" cy="118" r="2" fill="#2AB2E0"/>
<circle cx="1118" cy="118" r="2" fill="#2AB2E0"/>
<circle cx="1127" cy="118" r="2" fill="#2AB2E0"/>
<circle cx="1136" cy="118" r="2" fill="#2AB2E0"/>
<circle cx="1145" cy="118" r="2" fill="#2AB2E0"/>
<circle cx="1154" cy="118" r="2" fill="#2AB2E0"/>
<circle cx="1163" cy="118" r="2" fill="#2AB2E0"/>
<circle cx="1172" cy="118" r="2" fill="#2AB2E0"/>
<circle cx="1181" cy="118" r="2" fill="#2AB2E0"/>
<circle cx="1190" cy="118" r="2" fill="#2AB2E0"/>
<circle cx="1199" cy="118" r="2" fill="#2AB2E0"/>
<circle cx="1208" cy="118" r="2" fill="#2AB2E0"/>
<circle cx="1217" cy="118" r="2" fill="#2AB2E0"/>
<circle cx="1226" cy="118" r="2" fill="#2AB2E0"/>
<circle cx="1235" cy="118" r="2" fill="#2AB2E0"/>
<circle cx="1244" cy="118" r="2" fill="#2AB2E0"/>
<circle cx="1253" cy="118" r="2" fill="#2AB2E0"/>
<circle cx="1262" cy="118" r="2" fill="#2AB2E0"/>
<circle cx="1271" cy="118" r="2" fill="#2AB2E0"/>
<circle cx="1280" cy="118" r="2" fill="#2AB2E0"/>
<circle cx="1289" cy="118" r="2" fill="#2AB2E0"/>
<circle cx="1298" cy="118" r="2" fill="#2AB2E0"/>
<circle cx="1307" cy="118" r="2" fill="#2AB2E0"/>
<circle cx="1316" cy="118" r="2" fill="#2AB2E0"/>
<circle cx="1325" cy="118" r="2" fill="#2AB2E0"/>
<circle cx="1334" cy="118" r="2" fill="#2AB2E0"/>
<circle cx="1343" cy="118" r="2" fill="#2AB2E0"/>
<circle cx="1352" cy="118" r="2" fill="#2AB2E0"/>
<circle cx="1361" cy="118" r="2" fill="#2AB2E0"/>
<circle cx="2" cy="2" r="2" fill="#2AB2E0"/>
<circle cx="11" cy="2" r="2" fill="#2AB2E0"/>
<circle cx="20" cy="2" r="2" fill="#2AB2E0"/>
<circle cx="29" cy="2" r="2" fill="#2AB2E0"/>
<circle cx="38" cy="2" r="2" fill="#2AB2E0"/>
<circle cx="47" cy="2" r="2" fill="#2AB2E0"/>
<circle cx="56" cy="2" r="2" fill="#2AB2E0"/>
<circle cx="65" cy="2" r="2" fill="#2AB2E0"/>
<circle cx="74" cy="2" r="2" fill="#2AB2E0"/>
<circle cx="83" cy="2" r="2" fill="#2AB2E0"/>
<circle cx="92" cy="2" r="2" fill="#2AB2E0"/>
<circle cx="101" cy="2" r="2" fill="#2AB2E0"/>
<circle cx="110" cy="2" r="2" fill="#2AB2E0"/>
<circle cx="119" cy="2" r="2" fill="#2AB2E0"/>
<circle cx="128" cy="2" r="2" fill="#2AB2E0"/>
<circle cx="137" cy="2" r="2" fill="#2AB2E0"/>
<circle cx="146" cy="2" r="2" fill="#2AB2E0"/>
<circle cx="155" cy="2" r="2" fill="#2AB2E0"/>
<circle cx="164" cy="2" r="2" fill="#2AB2E0"/>
<circle cx="173" cy="2" r="2" fill="#2AB2E0"/>
<circle cx="182" cy="2" r="2" fill="#2AB2E0"/>
<circle cx="191" cy="2" r="2" fill="#2AB2E0"/>
<circle cx="200" cy="2" r="2" fill="#2AB2E0"/>
<circle cx="209" cy="2" r="2" fill="#2AB2E0"/>
<circle cx="218" cy="2" r="2" fill="#2AB2E0"/>
<circle cx="227" cy="2" r="2" fill="#2AB2E0"/>
<circle cx="236" cy="2" r="2" fill="#2AB2E0"/>
<circle cx="245" cy="2" r="2" fill="#2AB2E0"/>
<circle cx="254" cy="2" r="2" fill="#2AB2E0"/>
<circle cx="263" cy="2" r="2" fill="#2AB2E0"/>
<circle cx="272" cy="2" r="2" fill="#2AB2E0"/>
<circle cx="281" cy="2" r="2" fill="#2AB2E0"/>
<circle cx="290" cy="2" r="2" fill="#2AB2E0"/>
<circle cx="299" cy="2" r="2" fill="#2AB2E0"/>
<circle cx="308" cy="2" r="2" fill="#2AB2E0"/>
<circle cx="317" cy="2" r="2" fill="#2AB2E0"/>
<circle cx="326" cy="2" r="2" fill="#2AB2E0"/>
<circle cx="335" cy="2" r="2" fill="#2AB2E0"/>
<circle cx="344" cy="2" r="2" fill="#2AB2E0"/>
<circle cx="353" cy="2" r="2" fill="#2AB2E0"/>
<circle cx="362" cy="2" r="2" fill="#2AB2E0"/>
<circle cx="371" cy="2" r="2" fill="#2AB2E0"/>
<circle cx="380" cy="2" r="2" fill="#2AB2E0"/>
<circle cx="389" cy="2" r="2" fill="#2AB2E0"/>
<circle cx="398" cy="2" r="2" fill="#2AB2E0"/>
<circle cx="407" cy="2" r="2" fill="#2AB2E0"/>
<circle cx="416" cy="2" r="2" fill="#2AB2E0"/>
<circle cx="425" cy="2" r="2" fill="#2AB2E0"/>
<circle cx="434" cy="2" r="2" fill="#2AB2E0"/>
<circle cx="443" cy="2" r="2" fill="#2AB2E0"/>
<circle cx="452" cy="2" r="2" fill="#2AB2E0"/>
<circle cx="461" cy="2" r="2" fill="#2AB2E0"/>
<circle cx="470" cy="2" r="2" fill="#2AB2E0"/>
<circle cx="479" cy="2" r="2" fill="#2AB2E0"/>
<circle cx="488" cy="2" r="2" fill="#2AB2E0"/>
<circle cx="497" cy="2" r="2" fill="#2AB2E0"/>
<circle cx="506" cy="2" r="2" fill="#2AB2E0"/>
<circle cx="515" cy="2" r="2" fill="#2AB2E0"/>
<circle cx="524" cy="2" r="2" fill="#2AB2E0"/>
<circle cx="533" cy="2" r="2" fill="#2AB2E0"/>
<circle cx="542" cy="2" r="2" fill="#2AB2E0"/>
<circle cx="551" cy="2" r="2" fill="#2AB2E0"/>
<circle cx="560" cy="2" r="2" fill="#2AB2E0"/>
<circle cx="569" cy="2" r="2" fill="#2AB2E0"/>
<circle cx="578" cy="2" r="2" fill="#2AB2E0"/>
<circle cx="587" cy="2" r="2" fill="#2AB2E0"/>
<circle cx="596" cy="2" r="2" fill="#2AB2E0"/>
<circle cx="605" cy="2" r="2" fill="#2AB2E0"/>
<circle cx="614" cy="2" r="2" fill="#2AB2E0"/>
<circle cx="623" cy="2" r="2" fill="#2AB2E0"/>
<circle cx="632" cy="2" r="2" fill="#2AB2E0"/>
<circle cx="641" cy="2" r="2" fill="#2AB2E0"/>
<circle cx="650" cy="2" r="2" fill="#2AB2E0"/>
<circle cx="659" cy="2" r="2" fill="#2AB2E0"/>
<circle cx="668" cy="2" r="2" fill="#2AB2E0"/>
<circle cx="677" cy="2" r="2" fill="#2AB2E0"/>
<circle cx="686" cy="2" r="2" fill="#2AB2E0"/>
<circle cx="695" cy="2" r="2" fill="#2AB2E0"/>
<circle cx="704" cy="2" r="2" fill="#2AB2E0"/>
<circle cx="713" cy="2" r="2" fill="#2AB2E0"/>
<circle cx="722" cy="2" r="2" fill="#2AB2E0"/>
<circle cx="731" cy="2" r="2" fill="#2AB2E0"/>
<circle cx="740" cy="2" r="2" fill="#2AB2E0"/>
<circle cx="749" cy="2" r="2" fill="#2AB2E0"/>
<circle cx="758" cy="2" r="2" fill="#2AB2E0"/>
<circle cx="767" cy="2" r="2" fill="#2AB2E0"/>
<circle cx="776" cy="2" r="2" fill="#2AB2E0"/>
<circle cx="785" cy="2" r="2" fill="#2AB2E0"/>
<circle cx="794" cy="2" r="2" fill="#2AB2E0"/>
<circle cx="803" cy="2" r="2" fill="#2AB2E0"/>
<circle cx="812" cy="2" r="2" fill="#2AB2E0"/>
<circle cx="821" cy="2" r="2" fill="#2AB2E0"/>
<circle cx="830" cy="2" r="2" fill="#2AB2E0"/>
<circle cx="839" cy="2" r="2" fill="#2AB2E0"/>
<circle cx="848" cy="2" r="2" fill="#2AB2E0"/>
<circle cx="857" cy="2" r="2" fill="#2AB2E0"/>
<circle cx="866" cy="2" r="2" fill="#2AB2E0"/>
<circle cx="875" cy="2" r="2" fill="#2AB2E0"/>
<circle cx="884" cy="2" r="2" fill="#2AB2E0"/>
<circle cx="893" cy="2" r="2" fill="#2AB2E0"/>
<circle cx="902" cy="2" r="2" fill="#2AB2E0"/>
<circle cx="911" cy="2" r="2" fill="#2AB2E0"/>
<circle cx="920" cy="2" r="2" fill="#2AB2E0"/>
<circle cx="929" cy="2" r="2" fill="#2AB2E0"/>
<circle cx="938" cy="2" r="2" fill="#2AB2E0"/>
<circle cx="947" cy="2" r="2" fill="#2AB2E0"/>
<circle cx="956" cy="2" r="2" fill="#2AB2E0"/>
<circle cx="965" cy="2" r="2" fill="#2AB2E0"/>
<circle cx="974" cy="2" r="2" fill="#2AB2E0"/>
<circle cx="983" cy="2" r="2" fill="#2AB2E0"/>
<circle cx="992" cy="2" r="2" fill="#2AB2E0"/>
<circle cx="1001" cy="2" r="2" fill="#2AB2E0"/>
<circle cx="1010" cy="2" r="2" fill="#2AB2E0"/>
<circle cx="1019" cy="2" r="2" fill="#2AB2E0"/>
<circle cx="1028" cy="2" r="2" fill="#2AB2E0"/>
<circle cx="1037" cy="2" r="2" fill="#2AB2E0"/>
<circle cx="1046" cy="2" r="2" fill="#2AB2E0"/>
<circle cx="1055" cy="2" r="2" fill="#2AB2E0"/>
<circle cx="1064" cy="2" r="2" fill="#2AB2E0"/>
<circle cx="1073" cy="2" r="2" fill="#2AB2E0"/>
<circle cx="1082" cy="2" r="2" fill="#2AB2E0"/>
<circle cx="1091" cy="2" r="2" fill="#2AB2E0"/>
<circle cx="1100" cy="2" r="2" fill="#2AB2E0"/>
<circle cx="1109" cy="2" r="2" fill="#2AB2E0"/>
<circle cx="1118" cy="2" r="2" fill="#2AB2E0"/>
<circle cx="1127" cy="2" r="2" fill="#2AB2E0"/>
<circle cx="1136" cy="2" r="2" fill="#2AB2E0"/>
<circle cx="1145" cy="2" r="2" fill="#2AB2E0"/>
<circle cx="1154" cy="2" r="2" fill="#2AB2E0"/>
<circle cx="1163" cy="2" r="2" fill="#2AB2E0"/>
<circle cx="1172" cy="2" r="2" fill="#2AB2E0"/>
<circle cx="1181" cy="2" r="2" fill="#2AB2E0"/>
<circle cx="1190" cy="2" r="2" fill="#2AB2E0"/>
<circle cx="1199" cy="2" r="2" fill="#2AB2E0"/>
<circle cx="1208" cy="2" r="2" fill="#2AB2E0"/>
<circle cx="1217" cy="2" r="2" fill="#2AB2E0"/>
<circle cx="1226" cy="2" r="2" fill="#2AB2E0"/>
<circle cx="1235" cy="2" r="2" fill="#2AB2E0"/>
<circle cx="1244" cy="2" r="2" fill="#2AB2E0"/>
<circle cx="1253" cy="2" r="2" fill="#2AB2E0"/>
<circle cx="1262" cy="2" r="2" fill="#2AB2E0"/>
<circle cx="1271" cy="2" r="2" fill="#2AB2E0"/>
<circle cx="1280" cy="2" r="2" fill="#2AB2E0"/>
<circle cx="1289" cy="2" r="2" fill="#2AB2E0"/>
<circle cx="1298" cy="2" r="2" fill="#2AB2E0"/>
<circle cx="1307" cy="2" r="2" fill="#2AB2E0"/>
<circle cx="1316" cy="2" r="2" fill="#2AB2E0"/>
<circle cx="1325" cy="2" r="2" fill="#2AB2E0"/>
<circle cx="1334" cy="2" r="2" fill="#2AB2E0"/>
<circle cx="1343" cy="2" r="2" fill="#2AB2E0"/>
<circle cx="1352" cy="2" r="2" fill="#2AB2E0"/>
<circle cx="1361" cy="2" r="2" fill="#2AB2E0"/>
</svg>
