<svg width="1123" height="837" viewBox="0 0 1123 837" fill="none" xmlns="http://www.w3.org/2000/svg">
<path d="M328 739.5H816" stroke="#E8E9EA" stroke-width="3" stroke-linecap="round"/>
<circle cx="820" cy="442" r="297.5" stroke="#E8E9EA" stroke-width="3"/>
<path d="M62 227L62 177" stroke="#E8E9EA" stroke-width="3" stroke-linecap="round"/>
<path d="M830 144.5L737 144.5C703.863 144.5 677 117.637 677 84.5L677 2" stroke="#E8E9EA" stroke-width="3" stroke-linecap="round"/>
<path d="M141.5 144.5L607 144.5C640.137 144.5 667 117.637 667 84.5L667 2" stroke="#E8E9EA" stroke-width="3" stroke-linecap="round"/>
<path d="M1044.74 276.547C1044.77 275.995 1045.24 275.568 1045.79 275.594C1046.34 275.619 1046.77 276.087 1046.74 276.638L1044.74 276.547ZM1045.7 277.473L1044.7 277.428L1044.7 277.428L1045.7 277.473ZM1069.96 319.488L1070.42 318.6L1069.96 319.488ZM1071.7 319.591C1071.86 320.117 1071.57 320.68 1071.05 320.847L1062.47 323.571C1061.94 323.738 1061.38 323.447 1061.21 322.921C1061.05 322.394 1061.34 321.832 1061.86 321.665L1069.49 319.243L1067.07 311.619C1066.9 311.092 1067.19 310.53 1067.72 310.363C1068.24 310.196 1068.8 310.487 1068.97 311.013L1071.7 319.591ZM1046.74 276.638L1046.7 277.519L1044.7 277.428L1044.74 276.547L1046.74 276.638ZM1070.42 318.6L1071.2 319.006L1070.28 320.782L1069.5 320.376L1070.42 318.6ZM1046.7 277.519C1045.92 294.667 1055.18 310.706 1070.42 318.6L1069.5 320.376C1053.56 312.123 1043.88 295.355 1044.7 277.428L1046.7 277.519Z" fill="#E8E9EA"/>
<path d="M567.119 321.993C566.621 322.234 566.023 322.026 565.783 321.528C565.543 321.031 565.751 320.433 566.248 320.193L567.119 321.993ZM567.477 320.709L567.912 321.61L567.912 321.61L567.477 320.709ZM592.884 279.38L591.885 279.398L592.884 279.38ZM592.149 277.804C592.532 277.406 593.165 277.395 593.563 277.778L600.041 284.026C600.438 284.409 600.45 285.042 600.067 285.44C599.683 285.837 599.05 285.849 598.653 285.465L592.894 279.912L587.341 285.67C586.957 286.068 586.324 286.079 585.927 285.696C585.529 285.313 585.518 284.68 585.901 284.282L592.149 277.804ZM566.248 320.193L567.042 319.809L567.912 321.61L567.119 321.993L566.248 320.193ZM591.885 279.398L591.869 278.516L593.868 278.48L593.884 279.361L591.885 279.398ZM567.042 319.809C582.497 312.338 592.196 296.561 591.885 279.398L593.884 279.361C594.209 297.305 584.07 313.799 567.912 321.61L567.042 319.809Z" fill="#E8E9EA"/>
<path d="M601.457 615.643C601.46 616.195 601.015 616.646 600.463 616.65C599.911 616.653 599.46 616.208 599.457 615.656L601.457 615.643ZM600.451 614.768L601.451 614.761L601.451 614.761L600.451 614.768ZM574.033 574.077L573.62 574.988L574.033 574.077ZM572.294 574.065C572.099 573.548 572.361 572.971 572.878 572.777L581.302 569.608C581.819 569.414 582.395 569.675 582.59 570.192C582.784 570.709 582.523 571.286 582.006 571.48L574.518 574.297L577.334 581.785C577.529 582.301 577.267 582.878 576.75 583.073C576.233 583.267 575.657 583.006 575.462 582.489L572.294 574.065ZM599.457 615.656L599.451 614.774L601.451 614.761L601.457 615.643L599.457 615.656ZM573.62 574.988L572.817 574.623L573.643 572.802L574.446 573.166L573.62 574.988ZM599.451 614.774C599.339 597.609 589.254 582.076 573.62 574.988L574.446 573.166C590.791 580.576 601.334 596.816 601.451 614.761L599.451 614.774Z" fill="#E8E9EA"/>
<path d="M1097.3 414.76C1097.6 414.297 1098.22 414.166 1098.69 414.467C1099.15 414.768 1099.28 415.388 1098.98 415.851L1097.3 414.76ZM1097.66 416.044L1096.82 415.499L1096.82 415.499L1097.66 416.044ZM1097.3 464.558L1098.14 464.025L1097.3 464.558ZM1098.74 465.526C1098.62 466.064 1098.08 466.402 1097.55 466.279L1088.77 464.284C1088.23 464.161 1087.89 463.626 1088.02 463.087C1088.14 462.548 1088.67 462.211 1089.21 462.334L1097.01 464.107L1098.79 456.306C1098.91 455.768 1099.45 455.43 1099.98 455.553C1100.52 455.675 1100.86 456.211 1100.74 456.75L1098.74 465.526ZM1098.98 415.851L1098.5 416.59L1096.82 415.499L1097.3 414.76L1098.98 415.851ZM1098.14 464.025L1098.61 464.771L1096.92 465.837L1096.45 465.091L1098.14 464.025ZM1098.5 416.59C1089.14 430.979 1089 449.498 1098.14 464.025L1096.45 465.091C1086.89 449.903 1087.03 430.542 1096.82 415.499L1098.5 416.59Z" fill="#E8E9EA"/>
<path d="M1071.99 564.626C1072.49 564.397 1073.08 564.618 1073.31 565.121C1073.54 565.623 1073.32 566.216 1072.82 566.446L1071.99 564.626ZM1071.6 565.902L1071.19 564.992L1071.19 564.992L1071.6 565.902ZM1045.29 606.661L1046.29 606.665L1045.29 606.661ZM1045.99 608.253C1045.6 608.642 1044.96 608.639 1044.57 608.247L1038.24 601.858C1037.85 601.466 1037.85 600.833 1038.24 600.444C1038.63 600.055 1039.27 600.057 1039.66 600.449L1045.29 606.129L1050.97 600.494C1051.36 600.105 1051.99 600.108 1052.38 600.5C1052.77 600.892 1052.77 601.525 1052.38 601.914L1045.99 608.253ZM1072.82 566.446L1072.02 566.812L1071.19 564.992L1071.99 564.626L1072.82 566.446ZM1046.29 606.665L1046.28 607.547L1044.28 607.539L1044.29 606.657L1046.29 606.665ZM1072.02 566.812C1056.4 573.94 1046.36 589.499 1046.29 606.665L1044.29 606.657C1044.36 588.711 1054.86 572.445 1071.19 564.992L1072.02 566.812Z" fill="#E8E9EA"/>
<path d="M844.018 719.544C844.484 719.842 844.619 720.461 844.322 720.926C844.024 721.391 843.405 721.527 842.94 721.229L844.018 719.544ZM842.737 719.911L843.276 719.069H843.276L842.737 719.911ZM794.222 719.911L794.761 720.754L794.222 719.911ZM793.265 721.363C792.726 721.245 792.384 720.712 792.503 720.172L794.432 711.382C794.551 710.842 795.084 710.501 795.623 710.619C796.163 710.738 796.504 711.271 796.386 711.81L794.671 719.624L802.484 721.34C803.024 721.458 803.365 721.991 803.247 722.531C803.128 723.07 802.595 723.412 802.056 723.293L793.265 721.363ZM842.94 721.229L842.198 720.754L843.276 719.069L844.018 719.544L842.94 721.229ZM794.761 720.754L794.018 721.229L792.94 719.544L793.683 719.069L794.761 720.754ZM842.198 720.754C827.739 711.5 809.219 711.5 794.761 720.754L793.683 719.069C808.799 709.395 828.16 709.395 843.276 719.069L842.198 720.754Z" fill="#E8E9EA"/>
<path d="M61.2929 228.707C61.6834 229.098 62.3166 229.098 62.7071 228.707L69.0711 222.343C69.4616 221.953 69.4616 221.319 69.0711 220.929C68.6805 220.538 68.0474 220.538 67.6569 220.929L62 226.586L56.3431 220.929C55.9526 220.538 55.3195 220.538 54.9289 220.929C54.5384 221.319 54.5384 221.953 54.9289 222.343L61.2929 228.707ZM61 221V228H63V221H61Z" fill="#E8E9EA"/>
<path d="M329 739.5H51.0672C37.0052 739.5 24.8303 749.267 21.781 762.995L6.00854 834" stroke="#E8E9EA" stroke-width="3" stroke-linecap="round"/>
<path d="M5.99614 836.368C5.51662 836.642 4.90577 836.476 4.63176 835.996L0.166507 828.182C-0.107503 827.702 0.0590934 827.092 0.538611 826.818C1.01813 826.544 1.62898 826.71 1.90299 827.19L5.8721 834.136L12.818 830.167C13.2976 829.892 13.9084 830.059 14.1824 830.539C14.4564 831.018 14.2898 831.629 13.8103 831.903L5.99614 836.368ZM7.96476 830.263L6.46476 835.763L4.53524 835.237L6.03524 829.737L7.96476 830.263Z" fill="#E8E9EA"/>
<path d="M454.595 739.5H176.663C162.601 739.5 150.426 749.267 147.376 762.995L131.604 834" stroke="#E8E9EA" stroke-width="3" stroke-linecap="round"/>
<path d="M131.592 836.368C131.112 836.642 130.501 836.476 130.227 835.996L125.762 828.182C125.488 827.702 125.655 827.092 126.134 826.818C126.614 826.544 127.224 826.71 127.498 827.19L131.468 834.136L138.414 830.167C138.893 829.892 139.504 830.059 139.778 830.539C140.052 831.018 139.885 831.629 139.406 831.903L131.592 836.368ZM133.56 830.263L132.06 835.763L130.131 835.237L131.631 829.737L133.56 830.263Z" fill="#E8E9EA"/>
<path d="M521.439 437.939C522.025 437.354 522.975 437.354 523.561 437.939L533.107 447.485C533.692 448.071 533.692 449.021 533.107 449.607C532.521 450.192 531.571 450.192 530.985 449.607L522.5 441.121L514.015 449.607C513.429 450.192 512.479 450.192 511.893 449.607C511.308 449.021 511.308 448.071 511.893 447.485L521.439 437.939ZM521 446V439H524V446H521Z" fill="#E8E9EA"/>
<path d="M139.293 143.793C138.902 144.183 138.902 144.817 139.293 145.207L145.657 151.571C146.047 151.962 146.681 151.962 147.071 151.571C147.462 151.181 147.462 150.547 147.071 150.157L141.414 144.5L147.071 138.843C147.462 138.453 147.462 137.819 147.071 137.429C146.681 137.038 146.047 137.038 145.657 137.429L139.293 143.793ZM185 143.5H140V145.5H185V143.5Z" fill="#E8E9EA"/>
<path d="M835.061 145.561C835.646 144.975 835.646 144.025 835.061 143.439L825.515 133.893C824.929 133.308 823.979 133.308 823.393 133.893C822.808 134.479 822.808 135.429 823.393 136.015L831.879 144.5L823.393 152.985C822.808 153.571 822.808 154.521 823.393 155.107C823.979 155.692 824.929 155.692 825.515 155.107L835.061 145.561ZM827 146H834V143H827V146Z" fill="#E8E9EA"/>
<path d="M1091.53 320.723L1084.32 305.251L1076.26 290.278L1067.32 275.806L1057.53 261.833" stroke="#E8E9EA" stroke-width="10" stroke-linecap="round"/>
<path d="M584.197 259.56L574.017 273.257L564.688 287.478L556.211 302.222L548.586 317.49" stroke="#E8E9EA" stroke-width="10" stroke-linecap="round"/>
<path d="M552.404 573.413L560.403 588.488L569.24 603.019L578.917 617.005L589.432 630.447" stroke="#E8E9EA" stroke-width="10" stroke-linecap="round"/>
<path d="M1114.98 477.025L1116.61 460.037L1117.24 443.041L1116.87 426.038L1115.49 409.027" stroke="#E8E9EA" stroke-width="10" stroke-linecap="round"/>
<path d="M1053.54 626.667L1064.02 613.198L1073.66 599.187L1082.46 584.634L1090.42 569.538" stroke="#E8E9EA" stroke-width="10" stroke-linecap="round"/>
<path d="M782 737.711L799 739.211L816 739.711L833 739.211L850 737.711" stroke="#E8E9EA" stroke-width="10" stroke-linecap="round"/>
</svg>
