<svg width="613" height="475" viewBox="0 0 613 475" fill="none" xmlns="http://www.w3.org/2000/svg">
<path d="M243 188L212 188" stroke="#E8E9EA" stroke-width="3" stroke-linecap="round"/>
<path d="M244.707 188.707C245.098 188.317 245.098 187.683 244.707 187.293L238.343 180.929C237.953 180.538 237.319 180.538 236.929 180.929C236.538 181.319 236.538 181.953 236.929 182.343L242.586 188L236.929 193.657C236.538 194.047 236.538 194.681 236.929 195.071C237.319 195.462 237.953 195.462 238.343 195.071L244.707 188.707ZM237 189H244V187H237V189Z" fill="#E8E9EA"/>
<path d="M210.293 187.293C209.902 187.683 209.902 188.317 210.293 188.707L216.657 195.071C217.047 195.462 217.681 195.462 218.071 195.071C218.462 194.681 218.462 194.047 218.071 193.657L212.414 188L218.071 182.343C218.462 181.953 218.462 181.319 218.071 180.929C217.681 180.538 217.047 180.538 216.657 180.929L210.293 187.293ZM218 187H211V189H218V187Z" fill="#E8E9EA"/>
<path d="M41 434L41 1.99999" stroke="#E8E9EA" stroke-width="3" stroke-linecap="round"/>
<path d="M41 32L41 2" stroke="#E8E9EA" stroke-width="3" stroke-linecap="round"/>
<path d="M133 467H449" stroke="#E8E9EA" stroke-width="3" stroke-linecap="round"/>
<rect x="36" y="42" width="10" height="76" rx="5" fill="#E8E9EA"/>
<rect x="36" y="295" width="10" height="94" rx="5" fill="#E8E9EA"/>
<path d="M15.1577 54.4609C15.4554 53.9958 16.0739 53.86 16.539 54.1577C17.0042 54.4554 17.14 55.0739 16.8423 55.5391L15.1577 54.4609ZM15.5247 55.7426L14.6824 55.2036L14.6824 55.2036L15.5247 55.7426ZM15.5247 104.257L16.367 103.718L15.5247 104.257ZM16.9767 105.214C16.8583 105.754 16.325 106.095 15.7856 105.977L6.99488 104.047C6.45544 103.929 6.11413 103.395 6.23254 102.856C6.35095 102.316 6.88425 101.975 7.42369 102.094L15.2376 103.809L16.9529 95.9949C17.0713 95.4555 17.6046 95.1141 18.1441 95.2326C18.6835 95.351 19.0248 95.8843 18.9064 96.4237L16.9767 105.214ZM16.8423 55.5391L16.367 56.2817L14.6824 55.2036L15.1577 54.4609L16.8423 55.5391ZM16.367 103.718L16.8423 104.461L15.1577 105.539L14.6824 104.796L16.367 103.718ZM16.367 56.2817C7.11359 70.7401 7.11359 89.2599 16.367 103.718L14.6824 104.796C5.00844 89.6808 5.00844 70.3192 14.6824 55.2036L16.367 56.2817Z" fill="#E8E9EA"/>
<path d="M15.1577 316.461C15.4554 315.996 16.0739 315.86 16.539 316.158C17.0042 316.455 17.14 317.074 16.8423 317.539L15.1577 316.461ZM15.5247 317.743L14.6824 317.204L14.6824 317.204L15.5247 317.743ZM15.5247 366.257L16.367 365.718L15.5247 366.257ZM16.9767 367.214C16.8583 367.754 16.325 368.095 15.7856 367.977L6.99488 366.047C6.45544 365.929 6.11413 365.395 6.23254 364.856C6.35095 364.316 6.88425 363.975 7.42369 364.094L15.2376 365.809L16.9529 357.995C17.0713 357.455 17.6046 357.114 18.1441 357.233C18.6835 357.351 19.0248 357.884 18.9064 358.424L16.9767 367.214ZM16.8423 317.539L16.367 318.282L14.6824 317.204L15.1577 316.461L16.8423 317.539ZM16.367 365.718L16.8423 366.461L15.1577 367.539L14.6824 366.796L16.367 365.718ZM16.367 318.282C7.11359 332.74 7.11359 351.26 16.367 365.718L14.6824 366.796C5.00844 351.681 5.00844 332.319 14.6824 317.204L16.367 318.282Z" fill="#E8E9EA"/>
<path d="M40.2929 435.707C40.6834 436.098 41.3166 436.098 41.7071 435.707L48.0711 429.343C48.4616 428.953 48.4616 428.319 48.0711 427.929C47.6805 427.538 47.0474 427.538 46.6569 427.929L41 433.586L35.3431 427.929C34.9526 427.538 34.3195 427.538 33.9289 427.929C33.5384 428.319 33.5384 428.953 33.9289 429.343L40.2929 435.707ZM40 428V435H42V428H40Z" fill="#E8E9EA"/>
<path d="M131.293 466.293C130.902 466.683 130.902 467.317 131.293 467.707L137.657 474.071C138.047 474.462 138.681 474.462 139.071 474.071C139.462 473.681 139.462 473.047 139.071 472.657L133.414 467L139.071 461.343C139.462 460.953 139.462 460.319 139.071 459.929C138.681 459.538 138.047 459.538 137.657 459.929L131.293 466.293ZM139 466H132V468H139V466Z" fill="#E8E9EA"/>
<path d="M605 433L605 4" stroke="#E8E9EA" stroke-width="3" stroke-linecap="round"/>
<path d="M604.293 434.707C604.683 435.098 605.317 435.098 605.707 434.707L612.071 428.343C612.462 427.953 612.462 427.319 612.071 426.929C611.681 426.538 611.047 426.538 610.657 426.929L605 432.586L599.343 426.929C598.953 426.538 598.319 426.538 597.929 426.929C597.538 427.319 597.538 427.953 597.929 428.343L604.293 434.707ZM604 427V434H606V427H604Z" fill="#E8E9EA"/>
</svg>
