<svg width="686" height="477" viewBox="0 0 686 477" fill="none" xmlns="http://www.w3.org/2000/svg">
<path d="M41 52L41 2" stroke="#E8E9EA" stroke-width="3" stroke-linecap="round"/>
<circle cx="186" cy="320" r="145.5" stroke="#E8E9EA" stroke-width="3"/>
<path d="M41 315L41 2" stroke="#E8E9EA" stroke-width="3" stroke-linecap="round"/>
<path d="M331.5 313.5L331.5 46.4263C331.5 38.4699 334.661 30.8393 340.287 25.2132L352.5 13" stroke="#E8E9EA" stroke-width="3" stroke-linecap="round"/>
<path d="M331.5 310.5L331.5 126.083C331.5 118.004 334.758 110.267 340.538 104.622L353 92.4496" stroke="#E8E9EA" stroke-width="3" stroke-linecap="round"/>
<path d="M196 465.5H684" stroke="#E8E9EA" stroke-width="3" stroke-linecap="round"/>
<rect x="36" y="63" width="10" height="76" rx="5" fill="#E8E9EA"/>
<path d="M15.1577 74.4609C15.4554 73.9958 16.0739 73.86 16.539 74.1577C17.0042 74.4554 17.14 75.0739 16.8423 75.5391L15.1577 74.4609ZM15.5247 75.7426L14.6824 75.2036L14.6824 75.2036L15.5247 75.7426ZM15.5247 124.257L16.367 123.718L15.5247 124.257ZM16.9767 125.214C16.8583 125.754 16.325 126.095 15.7856 125.977L6.99488 124.047C6.45544 123.929 6.11413 123.395 6.23254 122.856C6.35095 122.316 6.88425 121.975 7.42369 122.094L15.2376 123.809L16.9529 115.995C17.0713 115.455 17.6046 115.114 18.1441 115.233C18.6835 115.351 19.0248 115.884 18.9064 116.424L16.9767 125.214ZM16.8423 75.5391L16.367 76.2817L14.6824 75.2036L15.1577 74.4609L16.8423 75.5391ZM16.367 123.718L16.8423 124.461L15.1577 125.539L14.6824 124.796L16.367 123.718ZM16.367 76.2817C7.11359 90.7401 7.11359 109.26 16.367 123.718L14.6824 124.796C5.00844 109.681 5.00844 90.3192 14.6824 75.2036L16.367 76.2817Z" fill="#E8E9EA"/>
<path d="M332.207 156.293C331.817 155.902 331.183 155.902 330.793 156.293L324.429 162.657C324.038 163.047 324.038 163.681 324.429 164.071C324.819 164.462 325.453 164.462 325.843 164.071L331.5 158.414L337.157 164.071C337.547 164.462 338.181 164.462 338.571 164.071C338.962 163.681 338.962 163.047 338.571 162.657L332.207 156.293ZM332.5 164V157H330.5V164H332.5Z" fill="#E8E9EA"/>
<path d="M354.95 12.0251C354.95 11.4728 354.502 11.0251 353.95 11.0251L344.95 11.0251C344.397 11.0251 343.95 11.4728 343.95 12.0251C343.95 12.5774 344.397 13.0251 344.95 13.0251H352.95V21.0251C352.95 21.5774 353.397 22.0251 353.95 22.0251C354.502 22.0251 354.95 21.5774 354.95 21.0251L354.95 12.0251ZM349.707 17.682L354.657 12.7322L353.243 11.318L348.293 16.2677L349.707 17.682Z" fill="#E8E9EA"/>
<path d="M354.95 91C354.95 90.4477 354.502 90 353.95 90L344.95 90C344.397 90 343.95 90.4477 343.95 91C343.95 91.5523 344.397 92 344.95 92H352.95V100C352.95 100.552 353.397 101 353.95 101C354.502 101 354.95 100.552 354.95 100L354.95 91ZM349.707 96.6569L354.657 91.7071L353.243 90.2929L348.293 95.2427L349.707 96.6569Z" fill="#E8E9EA"/>
<path d="M39.4393 317.061C40.0251 317.646 40.9749 317.646 41.5607 317.061L51.1066 307.515C51.6924 306.929 51.6924 305.979 51.1066 305.393C50.5208 304.808 49.5711 304.808 48.9853 305.393L40.5 313.879L32.0147 305.393C31.4289 304.808 30.4792 304.808 29.8934 305.393C29.3076 305.979 29.3076 306.929 29.8934 307.515L39.4393 317.061ZM39 309V316H42V309H39Z" fill="#E8E9EA"/>
<path d="M332.561 307.939C331.975 307.354 331.025 307.354 330.439 307.939L320.893 317.485C320.308 318.071 320.308 319.021 320.893 319.607C321.479 320.192 322.429 320.192 323.015 319.607L331.5 311.121L339.985 319.607C340.571 320.192 341.521 320.192 342.107 319.607C342.692 319.021 342.692 318.071 342.107 317.485L332.561 307.939ZM333 316V309H330V316H333Z" fill="#E8E9EA"/>
<path d="M199.061 466.561C199.646 465.975 199.646 465.025 199.061 464.439L189.515 454.893C188.929 454.308 187.979 454.308 187.393 454.893C186.808 455.479 186.808 456.429 187.393 457.015L195.879 465.5L187.393 473.985C186.808 474.571 186.808 475.521 187.393 476.107C187.979 476.692 188.929 476.692 189.515 476.107L199.061 466.561ZM191 467H198V464H191V467Z" fill="#E8E9EA"/>
<path d="M685.707 466.207C686.098 465.817 686.098 465.183 685.707 464.793L679.343 458.429C678.953 458.038 678.319 458.038 677.929 458.429C677.538 458.819 677.538 459.453 677.929 459.843L683.586 465.5L677.929 471.157C677.538 471.547 677.538 472.181 677.929 472.571C678.319 472.962 678.953 472.962 679.343 472.571L685.707 466.207ZM678 466.5H685V464.5H678V466.5Z" fill="#E8E9EA"/>
<path d="M181.939 175.561C181.354 174.975 181.354 174.025 181.939 173.439L191.485 163.893C192.071 163.308 193.021 163.308 193.607 163.893C194.192 164.479 194.192 165.429 193.607 166.015L185.121 174.5L193.607 182.985C194.192 183.571 194.192 184.521 193.607 185.107C193.021 185.692 192.071 185.692 191.485 185.107L181.939 175.561ZM190 176H183V173H190V176Z" fill="#E8E9EA"/>
</svg>
