<svg width="78" height="79" viewBox="0 0 78 79" fill="none" xmlns="http://www.w3.org/2000/svg">
<path d="M1.00005 -7.01693e-05C0.447767 -6.99164e-05 5.21539e-05 0.447645 5.1901e-05 0.99993L5.27018e-05 9.99993C5.23646e-05 10.5522 0.447768 10.9999 1.00005 10.9999C1.55234 10.9999 2.00005 10.5522 2.00005 9.99993L2.00005 1.99993L10.0001 1.99993C10.5523 1.99993 11.0001 1.55221 11.0001 0.99993C11.0001 0.447646 10.5523 -6.97057e-05 10.0001 -6.93685e-05L1.00005 -7.01693e-05ZM22.9204 21.506L1.70716 0.292824L0.292946 1.70704L21.5062 22.9202L22.9204 21.506Z" fill="#E8A92C"/>
<circle cx="44.4999" cy="45.5002" r="33" stroke="#E8A92C"/>
</svg>
