<svg width="48" height="18" viewBox="0 0 48 18" fill="none" xmlns="http://www.w3.org/2000/svg">
<path d="M2 7.85109C1.36547 7.85109 0.851088 8.36547 0.851087 9C0.851087 9.63453 1.36547 10.1489 2 10.1489L2 7.85109ZM46.8124 9.81241C47.2611 9.36373 47.2611 8.63628 46.8124 8.1876L39.5008 0.875965C39.0521 0.427287 38.3246 0.427286 37.876 0.875964C37.4273 1.32464 37.4273 2.05209 37.876 2.50077L44.3752 9L37.876 15.4992C37.4273 15.9479 37.4273 16.6754 37.876 17.124C38.3246 17.5727 39.0521 17.5727 39.5008 17.124L46.8124 9.81241ZM2 10.1489L46 10.1489L46 7.85109L2 7.85109L2 10.1489Z" fill="#D4D5D6"/>
</svg>
